<?xml version="1.0" encoding="utf-8"?>
<!-- Generator: Adobe Illustrator 17.0.0, SVG Export Plug-In . SVG Version: 6.00 Build 0)  -->
<!DOCTYPE svg PUBLIC "-//W3C//DTD SVG 1.1//EN" "http://www.w3.org/Graphics/SVG/1.1/DTD/svg11.dtd">
<svg version="1.1" id="Capa_1" xmlns="http://www.w3.org/2000/svg" xmlns:xlink="http://www.w3.org/1999/xlink" x="0px" y="0px"
	 width="1134px" height="367.482px" viewBox="0 0 1134 367.482" enable-background="new 0 0 1134 367.482" xml:space="preserve">
<linearGradient id="SVGID_1_" gradientUnits="userSpaceOnUse" x1="868.9681" y1="478.4761" x2="868.9681" y2="-63.2046">
	<stop  offset="0" style="stop-color:#45B33F"/>
	<stop  offset="0.6878" style="stop-color:#0A6EA2"/>
	<stop  offset="1" style="stop-color:#0A6EA2"/>
</linearGradient>
<path fill="url(#SVGID_1_)" d="M869.483,68.434c-0.29-0.07-0.58-0.14-0.86-0.2l-0.17-0.13l0.17,0.12
	C868.903,68.294,869.193,68.364,869.483,68.434z"/>
<linearGradient id="SVGID_2_" gradientUnits="userSpaceOnUse" x1="869.0531" y1="478.4761" x2="869.0531" y2="-63.2046">
	<stop  offset="0" style="stop-color:#45B33F"/>
	<stop  offset="0.6878" style="stop-color:#0A6EA2"/>
	<stop  offset="1" style="stop-color:#0A6EA2"/>
</linearGradient>
<path fill="url(#SVGID_2_)" d="M869.483,68.434c-0.29-0.07-0.58-0.14-0.86-0.2v-0.01C868.903,68.294,869.193,68.364,869.483,68.434z
	"/>
<linearGradient id="SVGID_3_" gradientUnits="userSpaceOnUse" x1="273.7631" y1="478.4761" x2="273.7631" y2="-63.2046">
	<stop  offset="0" style="stop-color:#45B33F"/>
	<stop  offset="0.6878" style="stop-color:#0A6EA2"/>
	<stop  offset="1" style="stop-color:#0A6EA2"/>
</linearGradient>
<path fill="url(#SVGID_3_)" d="M365.003,349.654h-6.26c-31.6,0-63.2-0.01-94.8,0c-7.73,0-7.6-0.03-10.19-7.43
	c-3.93-11.25-7.86-22.52-12.23-33.6c-1.2-3.04-2.39-6.07-3.41-9.17l-12.18-33c-3.91-10.16-8.33-20.13-11.42-30.6
	c-0.19-0.54-0.37-1.09-0.55-1.63c0.02-0.75,0.04-1.49,0.06-2.24c0.37-0.25,0.74-0.49,1.11-0.74c-0.15-0.15-0.3-0.29-0.44-0.44
	l-0.75,1.11c-0.3,0.04-0.61,0.09-0.91,0.13c-0.88-0.58-0.39-1.54-0.65-2.3c1.63-0.26,2.65-1.64,2.06-2.78
	c-0.75-1.47-2.3-2.72-4.37-2.41c-2.64-7.04-5.88-13.85-7.97-21.1c-3.61-9.62-7.98-18.96-10.72-28.91
	c-3.08-5.96-4.99-12.37-7.35-18.61c-0.34-0.9-0.71-1.52-1.51-1.94c0.74-4.97,2.93-9.51,4.29-14.29c1.56-5.5,4.81-10.53,4.7-16.5
	c0.48-0.69,1.16-1.32,1.41-2.09c0.94-3.01,1.89-6.02,2.82-9.03c2.82-9.04,5.62-18.09,8.42-27.13c1.76-5.2,3.74-10.34,5.22-15.62
	c1.06-3.77,2.88-7.35,3.1-11.36c0.22-0.51,0.45-1.01,0.68-1.52c0.01-0.5,0.03-1,0.04-1.49c0.65-1.05,1.54-2.02,1.91-3.16
	c4.15-12.89,8.22-25.81,12.32-38.72c4.3,7.64,6.92,16.01,10.29,24.05c3.77,8.98,7.15,18.12,10.83,27.13
	c6.32,15.45,12.87,30.8,19.09,46.29c3.55,8.84,6.83,17.83,10.5,26.57c4.43,10.56,8.42,21.32,13.15,31.76
	c3.59,9.73,8.69,18.88,11.2,29.03c0.26,1.07,2.08,1.11,1.49,2.57c4.25,10.11,8.74,20.12,12.06,30.6c0.19,0.29,0.38,0.57,0.58,0.86
	c0.09,0.23,0.19,0.46,0.29,0.69c3.94,9.17,8.11,18.24,11.11,27.78c5.71,11.43,9.55,23.65,14.9,35.23c0.2,0.42,0.08,0.98,0.11,1.47
	C350.283,314.454,357.533,331.794,365.003,349.654z"/>
<path opacity="0.3" fill="#21703B" d="M365.003,348.485h-6.26c-31.6,0-63.2-0.01-94.8,0c-7.73,0-7.6-0.03-10.19-7.43
	c-3.93-11.25-7.86-22.52-12.23-33.6c-1.2-3.04-2.39-6.07-3.41-9.17l-12.18-33c-3.91-10.16-8.33-20.13-11.42-30.6
	c-0.19-0.54-0.37-1.09-0.55-1.63c0.02-0.75,0.04-1.49,0.06-2.24c0.37-0.25,0.74-0.49,1.11-0.74c-0.15-0.15-0.3-0.29-0.44-0.44
	l-0.75,1.11c-0.3,0.04-0.61,0.09-0.91,0.13c-0.88-0.58-0.39-1.54-0.65-2.3c1.63-0.26,2.65-1.64,2.06-2.78
	c-0.75-1.47-2.3-2.72-4.37-2.41c-2.64-7.04-5.88-13.85-7.97-21.1c-3.61-9.62-7.98-18.96-10.72-28.91
	c-3.08-5.96-4.99-12.37-7.35-18.61c-0.34-0.9-0.71-1.52-1.51-1.94c0.74-4.97,2.93-9.51,4.29-14.29c1.56-5.5,4.81-10.53,4.7-16.5
	c0.48-0.69,1.16-1.32,1.41-2.09c0.94-3.01,1.89-6.02,2.82-9.03c2.82-9.04,5.62-18.09,8.42-27.13c1.76-5.2,3.74-10.34,5.22-15.62
	c1.06-3.77,2.88-7.35,3.1-11.36c0.22-0.51,0.45-1.01,0.68-1.52c0.01-0.5,0.03-1,0.04-1.49c0.65-1.05,1.54-2.02,1.91-3.16
	c4.15-12.89,8.22-25.81,12.32-38.72c4.3,7.64,6.92,16.01,10.29,24.05c3.77,8.98,7.15,18.12,10.83,27.13
	c6.32,15.45,12.87,30.8,19.09,46.29c3.55,8.84,6.83,17.83,10.5,26.57c4.43,10.56,8.42,21.32,13.15,31.76
	c3.59,9.73,8.69,18.88,11.2,29.03c0.26,1.07,2.08,1.11,1.49,2.57c4.25,10.11,8.74,20.12,12.06,30.6c0.19,0.29,0.38,0.57,0.58,0.86
	c0.09,0.23,0.19,0.46,0.29,0.69c3.94,9.17,8.11,18.24,11.11,27.78c5.71,11.43,9.55,23.65,14.9,35.23c0.2,0.42,0.08,0.98,0.11,1.47
	C350.283,313.285,357.533,330.625,365.003,348.485z"/>
<linearGradient id="SVGID_4_" gradientUnits="userSpaceOnUse" x1="200.6031" y1="478.4761" x2="200.6031" y2="-63.2046">
	<stop  offset="0" style="stop-color:#45B33F"/>
	<stop  offset="0.6878" style="stop-color:#0A6EA2"/>
	<stop  offset="1" style="stop-color:#0A6EA2"/>
</linearGradient>
<path fill="url(#SVGID_4_)" d="M197.053,88.894c2.37-1.31,4.73-2.63,7.1-3.93v-0.01C201.793,86.264,199.423,87.584,197.053,88.894z"
	/>
<linearGradient id="SVGID_5_" gradientUnits="userSpaceOnUse" x1="113.9769" y1="478.4761" x2="113.9769" y2="-63.2046">
	<stop  offset="0" style="stop-color:#45B33F"/>
	<stop  offset="0.6878" style="stop-color:#0A6EA2"/>
	<stop  offset="1" style="stop-color:#0A6EA2"/>
</linearGradient>
<path fill="url(#SVGID_5_)" d="M139.787,12.907c-1.83-0.01-2.22,0.86-2.77,2.19c-5.27,12.8-10.6,25.57-15.91,38.36
	c-0.24,0.8-0.4,1.64-0.74,2.4c-3.63,8.07-7.24,16.14-9.97,24.57c-0.24,0.25-0.57,0.46-0.7,0.77c-5.53,13.73-11.04,27.46-16.56,41.2
	c-4.47,8.55-7.16,17.85-11.09,26.65c-1.78,3.99-3.76,7.97-4.59,12.35c-3.13,4.97-4.55,10.69-6.83,16.02
	c-3.89,9.09-7.37,18.35-11.02,27.54c-0.77,1.65-1.63,3.26-2.29,4.95c-3.26,8.34-6.48,16.7-9.71,25.05c-0.26,0.5-0.52,1.01-0.79,1.52
	c1.06,1.11,0.17,1.29-0.7,1.48c-2.59,6.68-5.96,13.07-7.74,20.07c-0.34,0.36-0.83,0.65-0.99,1.08
	c-4.16,10.43-8.28,20.87-12.41,31.32c-3.11,5.99-5.35,12.33-7.53,18.7c1.3,1.04,3.79,1.14,3.04,3.82v0.01
	c0.1,1.74,0.08,2.63-2.45,2.64c-3.52,0.02-1.47-2.28-2.07-3.42c-5.11,12.39-10.22,24.77-15.45,37.46h4.1
	c32.71,0,65.43-0.08,98.14,0.08c3.9,0.02,5.82-0.83,7.12-4.82c3.35-10.26,7.95-20.08,11-30.46c2.86-4.66,3.73-10.12,5.99-15.02
	c3.98-10.49,7.96-20.97,11.95-31.46c2.3-6.5,5.37-12.72,7.06-19.45c3.29-6.8,5.6-13.98,8.19-21.05c1.99-5.48,4.7-10.7,5.95-16.45
	c0.11-1.17-0.56-2.68,1.35-3.06c0.11-0.22,0.16-0.45,0.15-0.69c2.67-6.66,5.47-13.26,7.99-19.97c3.41-9.07,6.61-18.22,9.89-27.33
	c1.04-1.99,2.09-3.97,3.13-5.96c0.74-4.97,2.93-9.51,4.29-14.29c1.56-5.5,4.81-10.53,4.7-16.5c0.48-0.69,1.16-1.32,1.41-2.09
	c0.94-3.01,1.89-6.02,2.82-9.03c2.82-9.04,5.61-18.08,8.41-27.12c-1.19,0.65-2.37,1.31-3.55,1.96c1.19-0.66,2.37-1.31,3.55-1.97
	h0.01c1.76-5.2,3.74-10.34,5.22-15.62c1.06-3.77,2.88-7.35,3.1-11.36c0.22-0.51,0.45-1.01,0.68-1.52c0.01-0.5,0.03-1,0.04-1.49
	c0.65-1.05,1.54-2.02,1.91-3.16c4.15-12.89,8.22-25.81,12.32-38.72C198.217,13.047,168.997,13.027,139.787,12.907z M109.597,86.767
	c0.14-0.06,0.4,0.13,0.62,0.23c-0.1,0.21-0.16,0.53-0.31,0.58c-0.14,0.06-0.39-0.14-0.6-0.23
	C109.397,87.137,109.447,86.827,109.597,86.767z"/>
<linearGradient id="SVGID_6_" gradientUnits="userSpaceOnUse" x1="200.6031" y1="478.4761" x2="200.6031" y2="-63.2046">
	<stop  offset="0" style="stop-color:#45B33F"/>
	<stop  offset="0.6878" style="stop-color:#0A6EA2"/>
	<stop  offset="1" style="stop-color:#0A6EA2"/>
</linearGradient>
<path fill="url(#SVGID_6_)" d="M204.153,84.954v0.01c-2.37,1.3-4.73,2.62-7.1,3.93C199.423,87.584,201.793,86.264,204.153,84.954z"
	/>
<linearGradient id="SVGID_7_" gradientUnits="userSpaceOnUse" x1="868.5481" y1="478.4761" x2="868.5481" y2="-63.2046">
	<stop  offset="0" style="stop-color:#45B33F"/>
	<stop  offset="0.6878" style="stop-color:#0A6EA2"/>
	<stop  offset="1" style="stop-color:#0A6EA2"/>
</linearGradient>
<path fill="url(#SVGID_7_)" d="M868.643,32.994c-0.01,11.75-0.02,23.48-0.02,35.23v0.01l-0.17-0.13
	C868.523,56.394,868.583,44.694,868.643,32.994z"/>
<linearGradient id="SVGID_8_" gradientUnits="userSpaceOnUse" x1="212.3426" y1="478.4761" x2="212.3426" y2="-63.2046">
	<stop  offset="0" style="stop-color:#45B33F"/>
	<stop  offset="0.6878" style="stop-color:#0A6EA2"/>
	<stop  offset="1" style="stop-color:#0A6EA2"/>
</linearGradient>
<path fill="url(#SVGID_8_)" d="M212.383,229.744c-1.53-1.39-1.97-3.27-2.31-5.19c2.07-0.31,3.62,0.94,4.37,2.41
	C215.033,228.104,214.013,229.484,212.383,229.744z"/>
<linearGradient id="SVGID_9_" gradientUnits="userSpaceOnUse" x1="473.9031" y1="478.4761" x2="473.9031" y2="-63.2046">
	<stop  offset="0" style="stop-color:#45B33F"/>
	<stop  offset="0.6878" style="stop-color:#0A6EA2"/>
	<stop  offset="1" style="stop-color:#0A6EA2"/>
</linearGradient>
<path fill="url(#SVGID_9_)" d="M477.283,240.914c-0.78,0.32-1.84,1.12-2.34,0.2c-1.3-2.44-4.13-3.89-4.42-6.94
	C472.773,236.424,475.033,238.674,477.283,240.914z"/>
<linearGradient id="SVGID_10_" gradientUnits="userSpaceOnUse" x1="18.3809" y1="478.4761" x2="18.3809" y2="-63.2046">
	<stop  offset="0" style="stop-color:#45B33F"/>
	<stop  offset="0.6878" style="stop-color:#0A6EA2"/>
	<stop  offset="1" style="stop-color:#0A6EA2"/>
</linearGradient>
<path fill="url(#SVGID_10_)" d="M20.487,312.947v0.01c-1.91,0.84-3.42,0.53-4.35-1.48c0.43-0.79,0.87-1.57,1.31-2.35
	C18.747,310.167,21.237,310.267,20.487,312.947z"/>
<linearGradient id="SVGID_11_" gradientUnits="userSpaceOnUse" x1="18.2114" y1="478.4761" x2="18.2114" y2="-63.2046">
	<stop  offset="0" style="stop-color:#45B33F"/>
	<stop  offset="0.6878" style="stop-color:#0A6EA2"/>
	<stop  offset="1" style="stop-color:#0A6EA2"/>
</linearGradient>
<path fill="url(#SVGID_11_)" d="M18.037,315.597c-3.52,0.02-1.47-2.28-2.07-3.42c-0.02-0.25,0.04-0.49,0.17-0.7
	c0.93,2.01,2.44,2.32,4.35,1.48C20.587,314.697,20.567,315.587,18.037,315.597z"/>
<linearGradient id="SVGID_12_" gradientUnits="userSpaceOnUse" x1="1125.8943" y1="478.4761" x2="1125.8943" y2="-63.2046">
	<stop  offset="0" style="stop-color:#45B33F"/>
	<stop  offset="0.6878" style="stop-color:#0A6EA2"/>
	<stop  offset="1" style="stop-color:#0A6EA2"/>
</linearGradient>
<path fill="url(#SVGID_12_)" d="M1127.343,86.434c-3.06-1.03-3.02-3.5-2.82-6.06C1126.213,82.044,1126.433,84.404,1127.343,86.434z"
	/>
<linearGradient id="SVGID_13_" gradientUnits="userSpaceOnUse" x1="160.6904" y1="478.4761" x2="160.6904" y2="-63.2046">
	<stop  offset="0" style="stop-color:#45B33F"/>
	<stop  offset="0.6878" style="stop-color:#0A6EA2"/>
	<stop  offset="1" style="stop-color:#0A6EA2"/>
</linearGradient>
<path fill="url(#SVGID_13_)" d="M160.013,211.004c0.11-1.17-0.56-2.68,1.35-3.06C161.543,209.244,160.963,210.204,160.013,211.004z"
	/>
<linearGradient id="SVGID_14_" gradientUnits="userSpaceOnUse" x1="1128.3861" y1="478.4761" x2="1128.3861" y2="-63.2046">
	<stop  offset="0" style="stop-color:#45B33F"/>
	<stop  offset="0.6878" style="stop-color:#0A6EA2"/>
	<stop  offset="1" style="stop-color:#0A6EA2"/>
</linearGradient>
<path fill="url(#SVGID_14_)" d="M1129.043,92.404c-2.22-0.19-1.02-1.42-0.73-2.38C1129.353,90.574,1128.843,91.594,1129.043,92.404z
	"/>
<linearGradient id="SVGID_15_" gradientUnits="userSpaceOnUse" x1="46.6829" y1="478.4761" x2="46.6829" y2="-63.2046">
	<stop  offset="0" style="stop-color:#45B33F"/>
	<stop  offset="0.6878" style="stop-color:#0A6EA2"/>
	<stop  offset="1" style="stop-color:#0A6EA2"/>
</linearGradient>
<path fill="url(#SVGID_15_)" d="M46.117,237.957c-0.14-0.67-0.02-1.22,0.7-1.48C47.877,237.587,46.987,237.767,46.117,237.957z"/>
<linearGradient id="SVGID_16_" gradientUnits="userSpaceOnUse" x1="213.5281" y1="478.4761" x2="213.5281" y2="-63.2046">
	<stop  offset="0" style="stop-color:#45B33F"/>
	<stop  offset="0.6878" style="stop-color:#0A6EA2"/>
	<stop  offset="1" style="stop-color:#0A6EA2"/>
</linearGradient>
<path fill="url(#SVGID_16_)" d="M214.023,231.984c-0.02,0.75-0.04,1.49-0.06,2.24c-0.99-0.44-0.69-1.42-0.93-2.18
	c0.3-0.04,0.61-0.09,0.91-0.13L214.023,231.984z"/>
<linearGradient id="SVGID_17_" gradientUnits="userSpaceOnUse" x1="650.9175" y1="478.4761" x2="650.9175" y2="-63.2046">
	<stop  offset="0" style="stop-color:#45B33F"/>
	<stop  offset="0.6878" style="stop-color:#0A6EA2"/>
	<stop  offset="1" style="stop-color:#0A6EA2"/>
</linearGradient>
<path fill="url(#SVGID_17_)" d="M652.463,60.774c-2.83,0.2-1.67-2.77-4.05-4.03c3.45-0.34,4.49,0.86,4.97,2.66
	C653.543,60.014,653.203,60.714,652.463,60.774z"/>
<linearGradient id="SVGID_18_" gradientUnits="userSpaceOnUse" x1="402.1088" y1="478.4761" x2="402.1088" y2="-63.2046">
	<stop  offset="0" style="stop-color:#45B33F"/>
	<stop  offset="0.6878" style="stop-color:#0A6EA2"/>
	<stop  offset="1" style="stop-color:#0A6EA2"/>
</linearGradient>
<path fill="url(#SVGID_18_)" d="M400.293,64.904c0.83-1.6,2.04-2.63,3.46-3.64C404.333,64.264,403.503,65.134,400.293,64.904z"/>
<linearGradient id="SVGID_19_" gradientUnits="userSpaceOnUse" x1="405.8524" y1="478.4761" x2="405.8524" y2="-63.2046">
	<stop  offset="0" style="stop-color:#45B33F"/>
	<stop  offset="0.6878" style="stop-color:#0A6EA2"/>
	<stop  offset="1" style="stop-color:#0A6EA2"/>
</linearGradient>
<path fill="url(#SVGID_19_)" d="M404.483,66.954v-0.01c0.14-1.55,1.45-1.94,2.66-3.19C407.573,66.644,406.173,66.944,404.483,66.954
	z"/>
<linearGradient id="SVGID_20_" gradientUnits="userSpaceOnUse" x1="512.2212" y1="478.4761" x2="512.2212" y2="-63.2046">
	<stop  offset="0" style="stop-color:#45B33F"/>
	<stop  offset="0.6878" style="stop-color:#0A6EA2"/>
	<stop  offset="1" style="stop-color:#0A6EA2"/>
</linearGradient>
<path fill="url(#SVGID_20_)" d="M514.993,100.304c-1.76,1.61-3.76,1.28-5.9,0.82c0.18-0.5,0.19-0.82,0.34-0.91
	c1.65-0.99,3.18-2.56,5.37-1.47C515.463,99.084,515.523,99.834,514.993,100.304z"/>
<linearGradient id="SVGID_21_" gradientUnits="userSpaceOnUse" x1="370.7716" y1="478.4761" x2="370.7716" y2="-63.2046">
	<stop  offset="0" style="stop-color:#45B33F"/>
	<stop  offset="0.6878" style="stop-color:#0A6EA2"/>
	<stop  offset="1" style="stop-color:#0A6EA2"/>
</linearGradient>
<path fill="url(#SVGID_21_)" d="M371.213,103.494c-0.1,0.21-0.16,0.53-0.31,0.58c-0.14,0.06-0.51-0.1-0.56-0.24
	c-0.06-0.15,0.1-0.51,0.25-0.57C370.733,103.204,370.993,103.394,371.213,103.494z"/>
<linearGradient id="SVGID_22_" gradientUnits="userSpaceOnUse" x1="373.7631" y1="478.4761" x2="373.7631" y2="-63.2046">
	<stop  offset="0" style="stop-color:#45B33F"/>
	<stop  offset="0.6878" style="stop-color:#0A6EA2"/>
	<stop  offset="1" style="stop-color:#0A6EA2"/>
</linearGradient>
<path fill="url(#SVGID_22_)" d="M374.213,98.994c-0.11,0.21-0.16,0.52-0.31,0.58c-0.14,0.06-0.39-0.14-0.59-0.23
	c0.09-0.21,0.13-0.52,0.28-0.58C373.733,98.704,373.983,98.904,374.213,98.994z"/>
<linearGradient id="SVGID_23_" gradientUnits="userSpaceOnUse" x1="874.8403" y1="478.4761" x2="874.8403" y2="-63.2046">
	<stop  offset="0" style="stop-color:#45B33F"/>
	<stop  offset="0.6878" style="stop-color:#0A6EA2"/>
	<stop  offset="1" style="stop-color:#0A6EA2"/>
</linearGradient>
<path fill="url(#SVGID_23_)" d="M875.503,45.794c-0.37,0.21-0.65,0.37-0.93,0.52c-0.14-0.3-0.44-0.63-0.39-0.9
	c0.04-0.23,0.46-0.41,0.71-0.61C875.073,45.094,875.243,45.374,875.503,45.794z"/>
<linearGradient id="SVGID_24_" gradientUnits="userSpaceOnUse" x1="1092.2731" y1="478.4761" x2="1092.2731" y2="-63.2046">
	<stop  offset="0" style="stop-color:#45B33F"/>
	<stop  offset="0.6878" style="stop-color:#0A6EA2"/>
	<stop  offset="1" style="stop-color:#0A6EA2"/>
</linearGradient>
<path fill="url(#SVGID_24_)" d="M1092.723,45.004c-0.1,0.22-0.15,0.53-0.3,0.59c-0.15,0.05-0.39-0.15-0.6-0.23
	c0.09-0.21,0.13-0.52,0.28-0.58C1092.253,44.724,1092.503,44.914,1092.723,45.004z"/>
<g>
	<linearGradient id="SVGID_25_" gradientUnits="userSpaceOnUse" x1="1000.6763" y1="478.4761" x2="1000.6763" y2="-63.2046">
		<stop  offset="0" style="stop-color:#45B33F"/>
		<stop  offset="0.6878" style="stop-color:#0A6EA2"/>
		<stop  offset="1" style="stop-color:#0A6EA2"/>
	</linearGradient>
	<path fill="url(#SVGID_25_)" d="M1131.953,103.614c-0.59-2.77-0.8-5.64-2.1-8.24c-0.37-0.96,0.51-2.26-0.81-2.97
		c-2.22-0.19-1.02-1.42-0.73-2.38c-0.33-1.2-0.65-2.39-0.97-3.59c-3.06-1.03-3.02-3.5-2.82-6.06c-1.9-7.35-6.3-13.36-10.49-19.47
		c-5.52-8.17-12.29-15.14-20.22-20.99c-2.64-1.97-5.14-4.17-7.94-5.87c-8.72-5.31-17.48-10.3-27.27-13.79
		c-10.12-3.6-20.16-7.04-30.85-7.19c-23.21-0.34-46.44-0.13-69.66-0.13c-28.58,0-57.17,0.04-85.76-0.06
		c-2.87-0.01-3.86,0.61-3.71,3.65c0.26,5.48,0.04,10.98,0.02,16.47c-0.01,11.75-0.02,23.48-0.02,35.23
		c0.28,0.07,0.57,0.14,0.86,0.21c-0.29-0.07-0.58-0.14-0.86-0.2l-0.17-0.13c-0.88,2.85-0.35,5.75-0.32,8.63v63.68
		c0.02,22.06-0.06,44.12,0.12,66.18c0.04,5.94-0.64,11.91,0.48,17.82c-0.02,3-0.04,6-0.06,8.99c-1.58,3.76-0.35,7.59-0.31,11.39
		c0.14,14.23,0.34,28.45,0.51,42.68c-0.01,10.5-0.01,21-0.02,31.5c-0.03,8.86-0.02,17.72-0.13,26.58c-0.02,2.09,0.9,2.52,2.72,2.47
		c3.86-0.09,7.74-0.05,11.61-0.05c27.35,0,54.69,0.01,82.04,0c1.91,0,4.14,0.58,4.12-2.72c-0.12-15.48-0.12-30.96-0.16-46.44v-14.27
		c0.02-17.05,0.04-34.11,0.07-51.16c1.12-1.22,2.58-0.64,3.88-0.65c17.83-0.06,35.67,0.21,53.5-0.19
		c9.98-0.23,19.75-2.51,29.16-5.96c9.58-3.51,18.93-7.51,26.82-14.23c1.25,0.36,1.81-0.46,2.31-1.37c0.24,0.01,0.47-0.05,0.69-0.17
		c0.93,0.04,1.26-0.64,1.57-1.34c2.12-0.15,2.78-2.34,4.43-3.15c8.43-6.01,15.69-13.24,21.73-21.6c5.2-7.21,10.13-14.63,12.84-23.24
		c0.92-0.72,1.1-1.77,1.47-2.81c2.27-6.44,3.79-13.07,5.04-19.78c0.31-0.73,0.61-1.46,0.92-2.2v-30
		C1132.203,106.054,1132.213,104.814,1131.953,103.614z M874.893,44.804c0.18,0.29,0.35,0.57,0.61,0.99
		c-0.37,0.21-0.65,0.37-0.93,0.52c-0.14-0.3-0.44-0.63-0.39-0.9C874.223,45.184,874.643,45.004,874.893,44.804z M1092.423,45.594
		c-0.15,0.05-0.39-0.15-0.6-0.23c0.09-0.21,0.13-0.52,0.28-0.58c0.15-0.06,0.4,0.13,0.62,0.22
		C1092.623,45.224,1092.573,45.534,1092.423,45.594z"/>
	<linearGradient id="SVGID_26_" gradientUnits="userSpaceOnUse" x1="515.0904" y1="478.4761" x2="515.0904" y2="-63.2046">
		<stop  offset="0" style="stop-color:#45B33F"/>
		<stop  offset="0.6878" style="stop-color:#0A6EA2"/>
		<stop  offset="1" style="stop-color:#0A6EA2"/>
	</linearGradient>
	<path fill="url(#SVGID_26_)" d="M679.653,198.564c0.05-14.24,0.03-28.49,0.09-42.74c0.02-2.6-1.54-2.64-3.46-2.64
		c-40.37,0.01-80.74,0.01-121.11-0.05c-2.25-0.01-3.03,0.58-3.02,2.93c0.08,24.75,0.06,49.5,0.03,74.24c0,1.58,0.2,2.75,2.1,2.75
		l0.02-0.06c1.09,0.8,2.07,0.14,3.07-0.25c1.07,0.23,2.13,0.66,3.2,0.67c8.05,0.03,16.1-0.07,24.15-0.02
		c1.9,0.01,3.84-0.96,5.72,0.1c-0.31,3.86-3.22,6.17-5.34,8.94c-3.47,2.5-6.93,5-10.39,7.5c-3.37,1.5-6.7,3.1-10.12,4.49
		c-12.82,5.22-26.28,5.86-39.87,5.33c-9.45-0.37-18.45-2.67-27.15-6.38c-7.4-3.15-13.77-7.92-20.29-12.46
		c-0.78,0.32-1.84,1.12-2.34,0.2c-1.3-2.44-4.13-3.89-4.42-6.94l-0.01-0.01c-6.46-7.93-11.75-16.53-15.15-26.21
		c-1.15-5.01-2.3-10.02-3.45-15.03c-1.32-20.09,0.28-39.56,11.92-56.94c2.41-3.05,4.62-6.3,7.27-9.13
		c12.97-13.82,28.56-22.74,47.59-25.31c16.52-2.23,32.55-0.36,48.12,5.36c12.6,4.63,23.08,12.57,32.21,22.26
		c2.12,2.24,3.37,1.94,5.36,0.06c3.09-2.93,6.48-5.53,9.66-8.35c7.35-6.54,15.51-12.15,22.27-19.37c3.94-1.64,6.55-5.01,9.73-7.61
		c7.65-6.26,15.07-12.79,22.6-19.21c1.26-1.08,2.11-2.12,0.52-3.65c-3.74-3.6-7.43-7.25-11.14-10.88
		c-5.73-6.62-12.46-12.1-19.5-17.24c-8.76-7.11-18.42-12.87-28.61-17.55c-16.2-7.43-33.09-12.68-50.89-14.9
		c-2.7-0.33-6.06,0.7-8.29-2.02h-39.75c-0.4,1.33-1.41,1.61-2.62,1.51c-4.76-0.4-9.43,0.8-13.95,1.7
		c-18.74,3.74-36.94,9.38-53.66,18.88c-4.21,2.39-8.93,4.09-12.31,7.82c-4.91,2.23-9.01,5.64-13.12,9.01
		c-6.4,5.24-13.13,10.12-18.34,16.67c-7.63,7.28-14.2,15.41-19.59,24.49c-4.06,4.63-6.79,10.13-9.48,15.55
		c-4,8.07-7.86,16.26-9.94,25.12c-4.89,15.12-6.96,30.68-7.36,46.5c-0.59,10.35,0.37,20.61,1.93,30.82
		c1.4,11.19,3.86,22.12,8.34,32.52c0.08,0.39,0.15,0.79,0.23,1.18l0.54,0.96c0.74,4.97,3.31,9.26,5.51,13.59
		c2.98,5.9,5.73,12.01,10.27,17c0.04,1.46,0.96,2.48,1.79,3.55c4.46,5.75,8.78,11.52,13.94,16.78c3.78,3.85,7.3,8.1,11.28,11.86
		c4.15,3.62,8.16,7.41,12.74,10.52c1.29,2.41,3.84,3.52,5.88,4.86c21.58,14.27,44.75,24.62,70.47,29.13
		c11.18,1.97,22.35,3.05,33.62,3.42c10.44,0.35,20.81-0.63,31.2-2.07c14.88-2.07,29.26-5.76,43.14-11.42
		c12.56-5.12,24.55-11.34,35.5-19.43c6.93-5.01,14.04-9.81,19.55-16.5c7.97-6.67,14.88-14.27,20.29-23.19
		c1.19-1.79,2.88-3.31,2.86-5.74c-0.06-13.42-0.09-26.84-0.13-40.25c-0.75-3.43-0.4-7.02-0.26-10.36
		c0.29-7.03,0.77-13.99-0.41-20.97c0.05-0.71,0.1-1.43,0.14-2.14C679.253,199.404,679.653,198.984,679.653,198.564z M653.383,59.404
		c0.16,0.61-0.18,1.31-0.92,1.37c-2.83,0.2-1.67-2.77-4.05-4.03C651.863,56.404,652.903,57.604,653.383,59.404z M509.433,100.214
		c1.65-0.99,3.18-2.56,5.37-1.47c0.66,0.34,0.72,1.09,0.19,1.56c-1.76,1.61-3.76,1.28-5.9,0.82
		C509.273,100.624,509.283,100.304,509.433,100.214z M357.933,150.874c-0.01,0.84-0.46,1.39-1.35,1.45
		c-1.13,0.06-1.43-0.64-1.58-1.62c-0.43-2.83,0.55-5.24,2.93-7.43C357.933,145.804,357.953,148.344,357.933,150.874z
		 M370.903,104.074c-0.14,0.06-0.51-0.1-0.56-0.24c-0.06-0.15,0.1-0.51,0.25-0.57c0.14-0.06,0.4,0.13,0.62,0.23
		C371.113,103.704,371.053,104.024,370.903,104.074z M373.903,99.574c-0.14,0.06-0.39-0.14-0.59-0.23c0.09-0.21,0.13-0.52,0.28-0.58
		c0.14-0.06,0.39,0.14,0.62,0.23C374.103,99.204,374.053,99.514,373.903,99.574z M400.293,64.904c0.83-1.6,2.04-2.63,3.46-3.64
		C404.333,64.264,403.503,65.134,400.293,64.904z M404.483,66.954v-0.01c0.14-1.55,1.45-1.94,2.66-3.19
		C407.573,66.644,406.173,66.944,404.483,66.954z M585.673,244.494c-0.21-0.1-0.42-0.19-0.63-0.28c0.21,0.09,0.42,0.18,0.63,0.27
		V244.494z"/>
	<linearGradient id="SVGID_27_" gradientUnits="userSpaceOnUse" x1="769.3986" y1="478.4761" x2="769.3986" y2="-63.2046">
		<stop  offset="0" style="stop-color:#45B33F"/>
		<stop  offset="0.6878" style="stop-color:#0A6EA2"/>
		<stop  offset="1" style="stop-color:#0A6EA2"/>
	</linearGradient>
	<path fill="url(#SVGID_27_)" d="M814.433,13.144c-30.79,0.05-61.58,0.04-92.38-0.01c-1.89,0-2.65,0.49-2.6,2.5
		c0.15,5.61,0.12,11.22,0.15,16.82c0,9.25-0.01,18.5-0.01,27.75c-0.07,10.96-0.13,21.92-0.19,32.88c-1.09,0.87-0.62,2.09-0.62,3.14
		c-0.02,29.48-0.01,58.96,0.03,88.43c0,1.05-0.49,2.27,0.63,3.12c-0.14,2.6-0.13,5.19-0.29,7.79c-0.46,7.37-1,14.79,0.31,22.16
		c0.05,5.24,0.1,10.49,0.14,15.73v30c0,10.99,0,21.99,0.01,32.99c-0.05,5.76-0.09,11.51-0.14,17.27
		c-0.59,9.93-0.73,19.86-0.13,29.82c0.21,3.4,1.07,3.99,4.21,3.98c31-0.11,61.99-0.12,92.99,0.05c3.17,0.02,2.76-1.62,2.76-3.45
		c0.01-15,0.01-29.99-0.02-44.99c-0.02-8.87-0.09-17.74-0.14-26.61c0.22-12.01,0.45-24.02,0.67-36.03
		c-0.04-11.52,1.01-23.05-0.71-34.53c0.3-1.43,0.84-2.85,0.84-4.28c0.02-13.32-0.05-26.64-0.09-39.97v-90.75
		c0-11.58-0.01-23.16-0.02-34.75c0.04-4.48-0.28-9.01,0.24-13.44C820.623,14.024,818.383,13.134,814.433,13.144z"/>
</g>
<linearGradient id="SVGID_28_" gradientUnits="userSpaceOnUse" x1="109.7581" y1="478.4761" x2="109.7581" y2="-63.2046">
	<stop  offset="0" style="stop-color:#45B33F"/>
	<stop  offset="0.6878" style="stop-color:#0A6EA2"/>
	<stop  offset="1" style="stop-color:#0A6EA2"/>
</linearGradient>
<path fill="url(#SVGID_28_)" d="M110.213,86.994c-0.1,0.21-0.16,0.53-0.31,0.58c-0.14,0.06-0.39-0.14-0.6-0.23
	c0.09-0.21,0.14-0.52,0.29-0.58C109.733,86.704,109.993,86.894,110.213,86.994z"/>
<linearGradient id="SVGID_29_" gradientUnits="userSpaceOnUse" x1="356.4234" y1="478.4761" x2="356.4234" y2="-63.2046">
	<stop  offset="0" style="stop-color:#45B33F"/>
	<stop  offset="0.6878" style="stop-color:#0A6EA2"/>
	<stop  offset="1" style="stop-color:#0A6EA2"/>
</linearGradient>
<path fill="url(#SVGID_29_)" d="M357.933,150.874c-0.01,0.84-0.46,1.39-1.35,1.45c-1.13,0.06-1.43-0.64-1.58-1.62
	c-0.43-2.83,0.55-5.24,2.93-7.43C357.933,145.804,357.953,148.344,357.933,150.874z"/>
<linearGradient id="SVGID_30_" gradientUnits="userSpaceOnUse" x1="214.5381" y1="478.4761" x2="214.5381" y2="-63.2046">
	<stop  offset="0" style="stop-color:#45B33F"/>
	<stop  offset="0.6878" style="stop-color:#0A6EA2"/>
	<stop  offset="1" style="stop-color:#0A6EA2"/>
</linearGradient>
<path fill="url(#SVGID_30_)" d="M215.133,231.244c-0.37,0.25-0.74,0.49-1.11,0.74l-0.08-0.07l0.75-1.11
	C214.833,230.954,214.983,231.094,215.133,231.244z"/>
<path opacity="0.3" fill="#21703B" d="M969.123,231.984c-0.03,37.524-0.05,75.07-0.07,112.593c-4.26,0.308-8.51,0.088-12.76,0.022
	c-27.09-0.44-54.17-0.286-81.26-0.11c-2.37,0-5.05,0.044-6.16,6.536c-0.17-31.317-0.37-62.613-0.51-93.93
	c-0.04-8.363-1.27-16.792,0.31-25.067C902.153,232.028,935.633,232.006,969.123,231.984z"/>
<path opacity="0.3" fill="#21703B" d="M679.743,274.474c0.02,2.43-1.67,3.95-2.86,5.74c-1.31-3.03-4.32-1.27-6.47-2.16
	c-19.49-8.04-39.15-15.66-58.79-23.34c-6.89-2.7-13.78-5.42-20.8-7.72c-2.35-0.77-2.95-3.79-5.67-3.62
	c2.12-2.77,5.03-5.08,5.34-8.94c28.34-0.02,56.67-0.04,85-0.07c1.38-0.01,2.75-0.09,4.12-0.14
	C679.653,247.634,679.683,261.054,679.743,274.474z"/>
</svg>
